<svg width="18" height="18" viewBox="0 0 18 18" fill="none" xmlns="http://www.w3.org/2000/svg"><path d="M15.875 0.5H2.125C1.628 0.5 1.151 0.698 0.799 1.049C0.448 1.401 0.25 1.878 0.25 2.375L0.25 16.125C0.25 16.622 0.448 17.099 0.799 17.451C1.151 17.802 1.628 18 2.125 18H15.875C16.372 18 16.849 17.802 17.201 17.451C17.552 17.099 17.75 16.622 17.75 16.125V2.375C17.75 1.878 17.552 1.401 17.201 1.049C16.849 0.698 16.372 0.5 15.875 0.5ZM15.235 12.507L14.649 15.046C14.619 15.175 14.546 15.29 14.443 15.372C14.339 15.455 14.211 15.5 14.078 15.5C7.828 15.5 2.75 10.433 2.75 4.172C2.755 4.041 2.801 3.914 2.883 3.812C2.965 3.709 3.077 3.635 3.204 3.601L5.743 3.015C5.787 3.006 5.831 3.001 5.875 3C5.988 3.006 6.098 3.042 6.193 3.104C6.287 3.167 6.364 3.253 6.414 3.355L7.586 6.089C7.614 6.163 7.63 6.241 7.633 6.32C7.623 6.494 7.546 6.657 7.418 6.774L5.938 7.985C6.835 9.886 8.364 11.415 10.265 12.312L11.476 10.832C11.593 10.704 11.756 10.627 11.93 10.617C12.009 10.62 12.087 10.636 12.161 10.665L14.895 11.836C14.997 11.886 15.084 11.963 15.146 12.057C15.208 12.152 15.244 12.262 15.25 12.375C15.249 12.419 15.244 12.463 15.235 12.507Z" fill="black"/></svg>