<svg width="20" height="20" viewBox="0 0 20 20" fill="none" xmlns="http://www.w3.org/2000/svg">
<path d="M0.398367 19.9013C0.26551 19.8341 0.163877 19.7354 0.101837 19.6187L0 19.4393V11.7226C0 4.25722 0.00448978 4.00151 0.0840815 3.81759C0.141632 3.69201 0.225714 3.59788 0.362857 3.52154C5.38142 0.645862 6.4657 0.0312113 6.5853 0.00866107C6.79326 -0.0362326 7.09876 0.098448 7.24917 0.295815L7.36876 0.45284L7.38203 1.9244L7.39529 3.39596L10.3471 3.40941C13.2326 3.42286 13.3034 3.42286 13.4539 3.51699C13.5379 3.56643 13.653 3.67401 13.7061 3.75925L13.8079 3.90738V6.34343V8.78403H13.122H12.4361V6.80995V4.83587H9.91345H7.39081L7.38203 10.4796L7.36876 16.128L7.25815 16.2716C7.17856 16.3748 6.61652 16.7246 5.35509 17.4471C4.36816 18.0168 3.53183 18.4968 3.49632 18.5193C3.45653 18.5462 5.20469 18.5642 7.93529 18.5642H12.4361V16.0297V13.4948H13.122H13.8079V16.4962V19.4931L13.7106 19.6413C13.653 19.722 13.5514 19.8341 13.4849 19.8835L13.361 19.9777L6.97917 19.9911L0.597346 20L0.398367 19.9013Z" fill="black"/>
<path d="M15.4145 14.2845L15.2906 14.177L15.2773 13.163L15.2641 12.1491H13.3965C12.2857 12.1491 11.4492 12.1268 11.3298 12.0997C10.8606 11.9921 10.5553 11.6106 10.5553 11.1395C10.5598 10.7357 10.7367 10.4396 11.0863 10.2512C11.259 10.157 11.312 10.1525 13.2637 10.139L15.2641 10.1256L15.2773 9.11619L15.2906 8.10225L15.441 7.96778C15.5649 7.85565 15.6179 7.83765 15.7375 7.85565C15.919 7.8871 19.8622 10.7719 19.9596 10.9467C20.0039 11.0365 20.0126 11.1037 19.9816 11.2338C19.9418 11.3909 19.8134 11.4941 17.9059 12.8982C16.0914 14.2308 15.8524 14.3921 15.7063 14.3921C15.5914 14.3921 15.4986 14.3563 15.4145 14.2845Z" fill="black"/>
</svg>
