<svg width="220" height="220" viewBox="0 0 220 220" fill="none" xmlns="http://www.w3.org/2000/svg">
<g clip-path="url(#clip0_37_171)">
<path d="M182.187 116.875H200.203C210.062 116.875 218.91 109.718 219.904 99.9075C221.042 88.6497 212.132 79.0625 201.094 79.0625H134.647C129.064 79.0625 124.056 74.8825 123.767 69.3034C123.454 63.3566 128.184 58.4375 134.062 58.4375H152.078C161.937 58.4375 170.785 51.2806 171.779 41.47C172.917 30.2122 164.007 20.625 152.969 20.625H113.437H87.6562H36.0937C25.6506 20.625 17.1875 29.0881 17.1875 39.5312C17.1875 49.9744 25.6506 58.4375 36.0937 58.4375H48.125C51.9234 58.4375 55 61.5141 55 65.3125C55 69.1109 51.9234 72.1875 48.125 72.1875H23.0725C15.0047 72.1875 7.76531 78.045 6.95406 86.0681C6.0225 95.2806 13.3134 103.125 22.3437 103.125H44.1031C49.6856 103.125 54.6941 107.305 54.9828 112.884C55.2956 118.831 50.5656 123.75 44.6875 123.75H33.385C25.3172 123.75 18.0778 129.607 17.2666 137.631C16.3384 146.843 23.6259 154.688 32.6562 154.688H47.7572C51.1809 154.688 54.3572 157.028 54.9072 160.408C55.605 164.715 52.3016 168.438 48.125 168.438H33.385C25.3172 168.438 18.0778 174.295 17.2666 182.318C16.335 191.531 23.6259 199.375 32.6562 199.375H108.281C108.577 199.375 108.852 199.303 109.141 199.289C109.429 199.313 109.704 199.375 110 199.375H169.764C175.505 199.375 180.747 195.518 181.923 189.898C183.535 182.181 177.609 175.312 170.156 175.312H151.618C148.194 175.312 145.018 172.972 144.468 169.592C143.77 165.285 147.073 161.562 151.25 161.562H193.49C201.558 161.562 208.797 155.705 209.608 147.678C210.537 138.469 203.249 130.625 194.219 130.625H182.555C179.132 130.625 175.955 128.284 175.405 124.905C174.707 120.598 178.011 116.875 182.187 116.875Z" fill="#FFEFCD"/>
</g>
<path d="M132.53 90.7703V74.2703C132.53 66.4447 129.763 59.7734 124.229 54.2564C118.712 48.7225 112.04 45.9555 104.215 45.9555C96.3892 45.9555 89.7179 48.7225 84.2009 54.2564C78.667 59.7734 75.9 66.4447 75.9 74.2703V90.7703" stroke="black" stroke-width="15" stroke-linecap="round" stroke-linejoin="round"/>
<path d="M89.7569 90.3885H133.019C140.335 90.3885 146.573 92.9688 151.734 98.1293C156.911 103.307 159.5 109.554 159.5 116.87V167.287C159.5 170.546 158.354 173.304 156.063 175.562C153.805 177.854 151.046 179 147.787 179H61.213C57.9707 179 55.2037 177.854 52.912 175.562C50.6373 173.287 49.5 170.529 49.5 167.287V129.474H89.7569V90.3885V129.474H49.5V116.87C49.5 109.537 52.0802 103.29 57.2407 98.1293C62.4012 92.9688 68.6481 90.3885 75.9815 90.3885H89.7569Z" fill="#FFAB00"/>
<path d="M123.083 123.643C123.083 125.697 122.692 127.496 121.912 129.041C121.046 130.586 120.044 131.927 118.907 133.064L112.745 138.717C111.913 139.43 111.26 140.075 110.784 140.652C110.258 141.246 109.885 141.789 109.664 142.282C109.409 142.723 109.214 143.181 109.078 143.657L108.467 146.127C108.009 148.622 106.583 149.87 104.189 149.87C102.916 149.87 101.864 149.462 101.032 148.647C100.149 147.833 99.7079 146.619 99.7079 145.006C99.7079 142.969 100.022 141.212 100.65 139.735C101.295 138.225 102.127 136.926 103.145 135.84C104.198 134.702 105.607 133.361 107.372 131.816L110.733 128.786C111.412 128.09 111.998 127.318 112.49 126.469C112.932 125.604 113.152 124.687 113.152 123.719C113.152 121.784 112.448 120.163 111.039 118.856C109.562 117.515 107.695 116.844 105.437 116.844C102.772 116.844 100.811 117.515 99.5551 118.856C98.3159 120.18 97.2719 122.149 96.4231 124.763C95.5914 127.479 94.0296 128.837 91.738 128.837C90.346 128.837 89.2086 128.37 88.3259 127.437C87.3753 126.486 86.9 125.459 86.9 124.356C86.9 122.047 87.6384 119.73 89.1153 117.404C90.5752 115.028 92.714 113.076 95.5319 111.548C98.3838 110.003 101.685 109.231 105.437 109.231C108.917 109.231 111.998 109.884 114.68 111.191C117.362 112.448 119.442 114.188 120.919 116.411C122.361 118.618 123.083 121.029 123.083 123.643ZM100.65 154.733C101.702 153.698 103.001 153.18 104.546 153.18C106.091 153.18 107.381 153.698 108.416 154.733C109.435 155.752 109.944 157.033 109.944 158.578C109.944 160.276 109.418 161.6 108.365 162.55C107.262 163.501 105.989 163.976 104.546 163.976C103.103 163.976 101.83 163.518 100.726 162.601C99.623 161.634 99.0713 160.293 99.0713 158.578C99.0713 157.033 99.5975 155.752 100.65 154.733Z" fill="#FFF9EC"/>
<defs>
<clipPath id="clip0_37_171">
<rect width="220" height="220" fill="white"/>
</clipPath>
</defs>
</svg>
