<svg width="88" height="88" viewBox="0 0 88 88" fill="none" xmlns="http://www.w3.org/2000/svg">
<path d="M57.75 57.75H71.5V71.5H57.75V57.75ZM46.75 46.75H57.75V57.75H46.75V46.75ZM71.5 71.5H82.5V82.5H71.5V71.5ZM74.25 46.75H82.5V55H74.25V46.75ZM46.75 74.25H55V82.5H46.75V74.25ZM57.75 16.5H71.5V30.25H57.75V16.5Z" fill="black"/>
<path d="M82.5 41.25H46.75V5.5H82.5V41.25ZM54.3125 33.6875H74.9375V13.0625H54.3125V33.6875ZM16.5 16.5H30.25V30.25H16.5V16.5Z" fill="black"/>
<path d="M41.25 41.25H5.5V5.5H41.25V41.25ZM13.0625 33.6875H33.6875V13.0625H13.0625V33.6875ZM16.5 57.75H30.25V71.5H16.5V57.75Z" fill="black"/>
<path d="M41.25 82.5H5.5V46.75H41.25V82.5ZM13.0625 74.9375H33.6875V54.3125H13.0625V74.9375Z" fill="black"/>
</svg>
