<svg width="220" height="220" viewBox="0 0 220 220" fill="none" xmlns="http://www.w3.org/2000/svg">
<g clip-path="url(#clip0_38_232)">
<path d="M182.187 116.875H200.203C210.062 116.875 218.91 109.718 219.904 99.9075C221.042 88.6497 212.132 79.0625 201.094 79.0625H134.647C129.064 79.0625 124.056 74.8825 123.767 69.3034C123.454 63.3566 128.184 58.4375 134.062 58.4375H152.078C161.937 58.4375 170.785 51.2806 171.779 41.47C172.917 30.2122 164.007 20.625 152.969 20.625H113.437H87.6562H36.0937C25.6506 20.625 17.1875 29.0881 17.1875 39.5312C17.1875 49.9744 25.6506 58.4375 36.0937 58.4375H48.125C51.9234 58.4375 55 61.5141 55 65.3125C55 69.1109 51.9234 72.1875 48.125 72.1875H23.0725C15.0047 72.1875 7.76531 78.045 6.95406 86.0681C6.0225 95.2806 13.3134 103.125 22.3437 103.125H44.1031C49.6856 103.125 54.6941 107.305 54.9828 112.884C55.2956 118.831 50.5656 123.75 44.6875 123.75H33.385C25.3172 123.75 18.0778 129.607 17.2666 137.631C16.3384 146.843 23.6259 154.688 32.6562 154.688H47.7572C51.1809 154.688 54.3572 157.028 54.9072 160.408C55.605 164.715 52.3016 168.438 48.125 168.438H33.385C25.3172 168.438 18.0778 174.295 17.2666 182.318C16.335 191.531 23.6259 199.375 32.6562 199.375H108.281C108.577 199.375 108.852 199.303 109.141 199.289C109.429 199.313 109.704 199.375 110 199.375H169.764C175.505 199.375 180.747 195.518 181.923 189.898C183.535 182.181 177.609 175.312 170.156 175.312H151.618C148.194 175.312 145.018 172.972 144.468 169.592C143.77 165.285 147.073 161.562 151.25 161.562H193.49C201.558 161.562 208.797 155.705 209.608 147.678C210.537 138.469 203.249 130.625 194.219 130.625H182.555C179.132 130.625 175.955 128.284 175.405 124.905C174.707 120.598 178.011 116.875 182.187 116.875Z" fill="#FFEFCD"/>
<path d="M67.2245 53.8772H89.5777L104.006 41.3923L105.128 40.7942C109.563 38.4019 113.825 38.4019 117.912 40.7942L118.883 41.3923L132.191 53.6529H153.049C154.095 53.7526 154.768 54.4504 155.067 55.7462V74.8099L174.879 91.2571L148.339 111.442V58.7366H71.3363V113.685L45.6189 92.6775L65.206 73.8381V55.8957C65.1561 54.4504 65.829 53.7775 67.2245 53.8772ZM173.01 173.119H47.2636C44.8214 173.169 43.7499 171.823 44.0489 169.082V164.148L98.9974 120.413C106.075 112.788 113.476 112.788 121.201 120.413L176 164.148V169.68C175.701 171.873 174.704 173.019 173.01 173.119ZM139.592 126.918L176 99.705V157.046L139.592 126.918ZM44.0489 155.401V98.7331L81.4288 127.889L44.0489 155.401Z" fill="#FFAB00"/>
<path d="M81.3541 75.0342C82.0518 74.3365 82.8991 73.9876 83.8959 73.9876H136.228C137.225 73.9876 138.072 74.3365 138.77 75.0342C139.467 75.732 139.816 76.5793 139.816 77.5761C139.816 78.5729 139.467 79.4202 138.77 80.1179C138.072 80.8157 137.225 81.1646 136.228 81.1646H83.8959C82.8991 81.1646 82.0518 80.8157 81.3541 80.1179C80.6563 79.4202 80.3074 78.5729 80.3074 77.5761C80.3074 76.5793 80.6563 75.732 81.3541 75.0342ZM83.7464 96.1165C82.7994 96.1165 81.9771 95.7676 81.2793 95.0699C80.6314 94.422 80.3074 93.6245 80.3074 92.6776C80.3074 91.7306 80.6314 90.9083 81.2793 90.2105C81.9771 89.5626 82.7994 89.2386 83.7464 89.2386H116.043C116.99 89.2386 117.787 89.5626 118.435 90.2105C119.133 90.9083 119.482 91.7306 119.482 92.6776C119.482 93.6245 119.133 94.422 118.435 95.0699C117.787 95.7676 116.99 96.1165 116.043 96.1165H83.7464Z" fill="black"/>
</g>
<defs>
<clipPath id="clip0_38_232">
<rect width="220" height="220" fill="white"/>
</clipPath>
</defs>
</svg>
