<svg width="24" height="31" viewBox="0 0 24 31" fill="none" xmlns="http://www.w3.org/2000/svg">
<path d="M12.9937 5.31631C14.5411 3.21028 16.6924 3.20001 16.6924 3.20001C16.6924 3.20001 17.0124 5.18004 15.4751 7.08744C13.8337 9.12412 11.9679 8.79085 11.9679 8.79085C11.9679 8.79085 11.6176 7.18907 12.9937 5.31631V5.31631ZM12.1647 10.1779C12.9608 10.1779 14.4383 9.04789 16.3615 9.04789C19.6718 9.04789 20.9741 11.4802 20.9741 11.4802C20.9741 11.4802 18.4271 12.8249 18.4271 16.0877C18.4271 19.7685 21.6 21.037 21.6 21.037C21.6 21.037 19.382 27.4833 16.3861 27.4833C15.0101 27.4833 13.9403 26.5258 12.4905 26.5258C11.013 26.5258 9.54684 27.519 8.5919 27.519C5.85618 27.5191 2.40002 21.4041 2.40002 16.4887C2.40002 11.6526 5.32544 9.11565 8.06935 9.11565C9.85315 9.11565 11.2374 10.1779 12.1647 10.1779V10.1779Z" fill="white"/>
</svg>
