<svg width="24" height="24" viewBox="0 0 24 24" fill="none" xmlns="http://www.w3.org/2000/svg">
<path d="M6.75 1.5H8.25V9H6.75V1.5Z" fill="black"/>
<path d="M10.5 8.25009C10.5 9.04574 10.1839 9.8088 9.62132 10.3714C9.05871 10.934 8.29565 11.2501 7.5 11.2501C6.70435 11.2501 5.94129 10.934 5.37868 10.3714C4.81607 9.8088 4.5 9.04574 4.5 8.25009V1.50009H3V8.25009C3.00108 9.31275 3.37818 10.3407 4.06454 11.152C4.75089 11.9633 5.7022 12.5055 6.75 12.6826V22.5001H8.25V12.6826C9.2978 12.5055 10.2491 11.9633 10.9355 11.152C11.6218 10.3407 11.9989 9.31275 12 8.25009V1.50009H10.5V8.25009ZM16.5 1.50009H15.75V22.5001H17.25V15.0001H19.5C19.8978 15.0001 20.2794 14.8421 20.5607 14.5608C20.842 14.2794 21 13.8979 21 13.5001V6.00009C21.0232 5.40293 20.9227 4.80741 20.7047 4.25095C20.4868 3.69449 20.1562 3.1891 19.7336 2.76652C19.311 2.34394 18.8056 2.0133 18.2491 1.79536C17.6927 1.57742 17.0972 1.4769 16.5 1.50009V1.50009ZM19.5 13.5001H17.25V3.06759C19.41 3.48759 19.5 5.72259 19.5 6.00009V13.5001Z" fill="black"/>
</svg>
