<svg width="120" height="120" viewBox="0 0 120 120" fill="none" xmlns="http://www.w3.org/2000/svg">
<circle cx="60" cy="60" r="60" fill="#FFAB00"/>
<path d="M84.914 76.23C84.6958 76.0105 84.3992 75.8867 84.0896 75.8867C83.7801 75.8867 83.4834 76.0105 83.2652 76.23L80.5713 78.9355L77.8774 76.23C77.4226 75.7752 76.684 75.7752 76.2285 76.23C75.7737 76.6854 75.7737 77.424 76.2285 77.8788L78.934 80.5728L76.2285 83.2667C76.0091 83.4849 75.8853 83.7815 75.8853 84.0911C75.8853 84.4006 76.0091 84.6973 76.2285 84.9155C76.4467 85.1355 76.7434 85.2587 77.0529 85.2587C77.3625 85.2587 77.6597 85.1355 77.8773 84.9155L80.5713 82.21L83.2652 84.9155C83.4834 85.1355 83.78 85.2587 84.0896 85.2587C84.3991 85.2587 84.6958 85.1355 84.914 84.9155C85.134 84.6973 85.2573 84.4006 85.2573 84.0911C85.2573 83.7815 85.134 83.4849 84.914 83.2667L82.2085 80.5728L84.914 77.8788C85.134 77.6612 85.2573 77.364 85.2573 77.0544C85.2573 76.7449 85.134 76.4482 84.914 76.23L84.914 76.23Z" fill="black"/>
<path d="M80.5724 67.8006C77.6038 67.8055 74.7304 68.8438 72.4446 70.7379V56.1889C72.4446 55.5477 71.9249 55.028 71.2837 55.028C70.642 55.028 70.1222 55.5477 70.1222 56.1889V73.2345C70.0523 73.3277 70.0063 73.4203 69.9365 73.5134L69.6809 73.9198L69.4136 74.3728C69.3321 74.5119 69.2628 74.6517 69.193 74.7908C69.1231 74.9299 69.0305 75.104 68.9607 75.2671C68.8908 75.4295 68.8332 75.546 68.7749 75.6968C68.7167 75.8475 68.6358 76.0333 68.5776 76.1963C68.5193 76.3587 68.4734 76.4869 68.4268 76.626C68.3802 76.7651 68.3226 76.9858 68.2643 77.1599C68.2061 77.3339 68.1828 77.4388 68.1485 77.5779C68.1136 77.717 68.067 77.9726 68.0326 78.17L68.032 78.1694C68.0026 78.2999 67.9793 78.4317 67.9628 78.5641C67.9628 78.7731 67.9628 79.0054 67.8812 79.2261C67.7997 79.4468 67.8812 79.4468 67.8812 79.5626V80.5728V81.5829V81.9194C67.8812 82.0236 67.8812 82.3724 67.9628 82.5814C68.0443 82.7904 67.9628 82.8486 68.0326 82.9878C68.1025 83.1269 68.1025 83.3709 68.1485 83.5682C68.1951 83.7656 68.23 83.8471 68.2643 83.9863C68.2993 84.1254 68.3685 84.3461 68.4268 84.5201C68.485 84.6942 68.531 84.8107 68.5776 84.9498C68.6242 85.089 68.7051 85.2863 68.7633 85.4494C68.8215 85.6118 68.8908 85.7399 68.9607 85.8791C69.0305 86.0182 69.1114 86.1923 69.1813 86.3553C69.2512 86.5178 69.3438 86.6342 69.4136 86.7734L69.6809 87.2263L69.9365 87.6327C70.0063 87.7259 70.0523 87.8184 70.1222 87.9116V89.862C70.1222 90.1697 70.0002 90.4652 69.782 90.6828C69.5644 90.901 69.269 91.023 68.9613 91.023H59.6721V78.2509C59.6721 77.9426 59.5501 77.6471 59.3325 77.4295C59.1143 77.2119 58.8188 77.0893 58.5111 77.0893H39.934C39.2928 77.0893 38.773 77.6091 38.773 78.2509V91.023H29.4838C28.8427 91.023 28.3229 90.5032 28.3229 89.862V36.3227C28.3229 36.0481 28.4314 35.7857 28.6251 35.5914C28.8194 35.3977 29.0818 35.2892 29.3564 35.2892H69.0888C69.3628 35.2892 69.6257 35.3977 69.8194 35.5914C70.0137 35.7857 70.1222 36.0481 70.1222 36.3227V45.7388C70.1222 46.3806 70.642 46.9004 71.2837 46.9004C71.9249 46.9004 72.4447 46.3806 72.4447 45.7388V36.3227C72.4416 35.4333 72.0873 34.5819 71.4584 33.9529C70.8295 33.3241 69.9781 32.9698 69.0887 32.9667H65.4778V29.4834C65.4778 28.5596 65.1106 27.6733 64.4572 27.0199C63.8044 26.3671 62.9181 26 61.9944 26H36.4502C35.5265 26 34.6402 26.3671 33.9868 27.0199C33.334 27.6734 32.9669 28.5597 32.9669 29.4834V32.9667H29.356C28.4666 32.9698 27.6152 33.324 26.9862 33.9529C26.3574 34.5818 26.0031 35.4332 26 36.3227V89.862C26 90.7858 26.3671 91.6714 27.0199 92.3248C27.6734 92.9782 28.5597 93.3454 29.4834 93.3454H68.9616C69.8032 93.3546 70.6202 93.0585 71.2601 92.5118C71.9006 91.9656 72.3217 91.2056 72.4449 90.3726C75.6452 93.0475 79.9492 93.9913 83.9745 92.9009C88.0003 91.8105 91.2398 88.8236 92.6527 84.8995C94.0662 80.976 93.4741 76.6094 91.0676 73.2032C88.6611 69.7965 84.7431 67.7799 80.5726 67.8007L80.5724 67.8006ZM35.2883 29.4835C35.2883 28.8424 35.8081 28.3226 36.4492 28.3226H61.9934C62.3011 28.3226 62.5965 28.4446 62.8141 28.6622C63.0323 28.8804 63.1543 29.1758 63.1543 29.4835V32.9669H35.2878L35.2883 29.4835ZM48.0604 91.0224H41.0937V79.4113H48.0604V91.0224ZM57.3496 91.0224H50.3829V79.4113H57.3496V91.0224ZM80.5714 91.0224C77.2804 91.02 74.1826 89.4667 72.2115 86.8311C70.8458 85.0308 70.1115 82.8316 70.1214 80.5722V79.7245C70.1214 79.4456 70.1912 79.0974 70.2372 78.7842H70.2378C70.4664 77.4425 70.9593 76.1595 71.6893 75.0103C71.8364 74.778 71.9988 74.5457 72.1772 74.3133L72.1766 74.314C74.3451 71.4142 77.8599 69.8438 81.4664 70.1631C85.0729 70.4818 88.2578 72.6455 89.8835 75.8808C91.509 79.1159 91.3435 82.9622 89.4471 86.0465C87.5506 89.1308 84.1923 91.0132 80.5717 91.0224H80.5714Z" fill="black"/>
<path d="M71.2831 49.2219C70.6414 49.2219 70.1216 49.7423 70.1216 50.3835V51.5444C70.1216 52.1855 70.6414 52.7053 71.2831 52.7053C71.9243 52.7053 72.444 52.1855 72.444 51.5444V50.3835C72.444 50.0752 72.3214 49.7803 72.1038 49.5621C71.8863 49.3445 71.5908 49.2219 71.2831 49.2219L71.2831 49.2219Z" fill="black"/>
<path d="M66.6382 39.9341C66.6382 39.6258 66.5162 39.331 66.298 39.1128C66.0804 38.8952 65.7849 38.7732 65.4772 38.7732H58.5105C57.8694 38.7732 57.3496 39.293 57.3496 39.9341V46.9008C57.3496 47.2085 57.4716 47.504 57.6898 47.7216C57.9074 47.9398 58.2028 48.0618 58.5105 48.0618H65.4772C65.7849 48.0618 66.0804 47.9398 66.298 47.7216C66.5162 47.504 66.6382 47.2085 66.6382 46.9008L66.6382 39.9341ZM64.3157 45.74L59.6713 45.7394V41.095H64.3157V45.74Z" fill="black"/>
<path d="M41.0942 39.9341C41.0942 39.6258 40.9722 39.331 40.754 39.1128C40.5364 38.8952 40.241 38.7732 39.9333 38.7732H32.9666C32.3254 38.7732 31.8057 39.293 31.8057 39.9341V46.9008C31.8057 47.2085 31.9276 47.504 32.1452 47.7216C32.3634 47.9398 32.6589 48.0618 32.9666 48.0618H39.9333C40.241 48.0618 40.5365 47.9398 40.754 47.7216C40.9723 47.504 41.0942 47.2085 41.0942 46.9008L41.0942 39.9341ZM38.7717 45.74L34.1274 45.7394V41.095H38.7717V45.74Z" fill="black"/>
<path d="M53.8653 39.9341C53.8653 39.6258 53.7428 39.331 53.5252 39.1128C53.3076 38.8952 53.0121 38.7732 52.7038 38.7732H45.7371C45.0959 38.7732 44.5762 39.293 44.5762 39.9341V46.9008C44.5762 47.2085 44.6988 47.504 44.9164 47.7216C45.134 47.9398 45.4294 48.0618 45.7371 48.0618H52.7038C53.0121 48.0618 53.3076 47.9398 53.5252 47.7216C53.7428 47.504 53.8654 47.2085 53.8654 46.9008L53.8653 39.9341ZM51.5428 45.74L46.8985 45.7394V41.095H51.5428V45.74Z" fill="black"/>
<path d="M66.6382 52.7054C66.6382 52.3977 66.5162 52.1022 66.298 51.8846C66.0804 51.667 65.7849 51.5444 65.4772 51.5444H58.5105C57.8694 51.5444 57.3496 52.0642 57.3496 52.7054V59.6721C57.3496 59.9804 57.4716 60.2758 57.6898 60.4934C57.9074 60.711 58.2028 60.8336 58.5105 60.8336H65.4772C65.7849 60.8336 66.0804 60.711 66.298 60.4934C66.5162 60.2758 66.6382 59.9804 66.6382 59.6721L66.6382 52.7054ZM64.3157 58.5112H59.6713V53.8669H64.3157V58.5112Z" fill="black"/>
<path d="M41.0942 52.7054C41.0942 52.3977 40.9722 52.1022 40.754 51.8846C40.5364 51.667 40.241 51.5444 39.9333 51.5444H32.9666C32.3254 51.5444 31.8057 52.0642 31.8057 52.7054V59.6721C31.8057 59.9804 31.9276 60.2758 32.1452 60.4934C32.3634 60.711 32.6589 60.8336 32.9666 60.8336H39.9333C40.241 60.8336 40.5365 60.711 40.754 60.4934C40.9723 60.2758 41.0942 59.9804 41.0942 59.6721L41.0942 52.7054ZM38.7717 58.5112H34.1274V53.8669H38.7717V58.5112Z" fill="black"/>
<path d="M53.8653 52.7054C53.8653 52.3977 53.7428 52.1022 53.5252 51.8846C53.3076 51.667 53.0121 51.5444 52.7038 51.5444H45.7371C45.0959 51.5444 44.5762 52.0642 44.5762 52.7054V59.6721C44.5762 59.9804 44.6988 60.2758 44.9164 60.4934C45.134 60.711 45.4294 60.8336 45.7371 60.8336H52.7038C53.0121 60.8336 53.3076 60.711 53.5252 60.4934C53.7428 60.2758 53.8654 59.9804 53.8654 59.6721L53.8653 52.7054ZM51.5428 58.5112H46.8985V53.8669H51.5428V58.5112Z" fill="black"/>
<path d="M65.4772 64.3172H58.5105C57.8694 64.3172 57.3496 64.8369 57.3496 65.4781V72.4448C57.3496 72.7525 57.4716 73.0479 57.6898 73.2655C57.9074 73.4837 58.2028 73.6057 58.5105 73.6057H65.4772C65.7849 73.6057 66.0804 73.4837 66.298 73.2655C66.5162 73.0479 66.6382 72.7525 66.6382 72.4448V65.4781C66.6382 65.1704 66.5162 64.8749 66.298 64.6567C66.0804 64.4391 65.785 64.3171 65.4772 64.3171L65.4772 64.3172ZM64.3163 71.2839H59.6713V66.6389H64.3157L64.3163 71.2839Z" fill="black"/>
<path d="M39.9328 64.3172H32.9661C32.325 64.3172 31.8052 64.8369 31.8052 65.4781V72.4448C31.8052 72.7525 31.9272 73.0479 32.1448 73.2655C32.363 73.4837 32.6584 73.6057 32.9661 73.6057H39.9328C40.2405 73.6057 40.536 73.4837 40.7536 73.2655C40.9718 73.0479 41.0938 72.7525 41.0938 72.4448V65.4781C41.0938 65.1704 40.9718 64.8749 40.7536 64.6567C40.536 64.4391 40.2405 64.3171 39.9328 64.3171L39.9328 64.3172ZM38.7719 71.2839H34.1269V66.6389H38.7713L38.7719 71.2839Z" fill="black"/>
<path d="M52.7043 64.3172H45.7376C45.0964 64.3172 44.5767 64.8369 44.5767 65.4781V72.4448C44.5767 72.7525 44.6992 73.0479 44.9169 73.2655C45.1344 73.4837 45.4299 73.6057 45.7376 73.6057H52.7043C53.0126 73.6057 53.3081 73.4837 53.5257 73.2655C53.7433 73.0479 53.8659 72.7525 53.8659 72.4448V65.4781C53.8659 65.1704 53.7433 64.8749 53.5257 64.6567C53.3081 64.4391 53.0126 64.3171 52.7043 64.3171L52.7043 64.3172ZM51.5434 71.2839H46.899V66.6389H51.5434V71.2839Z" fill="black"/>
</svg>
