<svg width="88" height="88" viewBox="0 0 88 88" fill="none" xmlns="http://www.w3.org/2000/svg">
<mask id="mask0_16_384" style="mask-type:alpha" maskUnits="userSpaceOnUse" x="-16" y="-32" width="120" height="120">
<circle cx="44" cy="28" r="60" fill="#F5F5F9"/>
</mask>
<g mask="url(#mask0_16_384)">
<path d="M44 49.5C57.6641 49.5 68.75 38.4141 68.75 24.75C68.75 11.0859 57.6641 0 44 0C30.3359 0 19.25 11.0859 19.25 24.75C19.25 38.4141 30.3359 49.5 44 49.5ZM66 55H56.5297C52.7141 56.7531 48.4688 57.75 44 57.75C39.5312 57.75 35.3031 56.7531 31.4703 55H22C9.84844 55 0 64.8484 0 77V79.75C0 84.3047 3.69531 88 8.25 88H79.75C84.3047 88 88 84.3047 88 79.75V77C88 64.8484 78.1516 55 66 55Z" fill="#C4C4CB"/>
</g>
</svg>
