<svg width="20" height="20" viewBox="0 0 20 20" fill="none" xmlns="http://www.w3.org/2000/svg">
<path d="M7 10C9.20938 10 11 8.20938 11 6C11 3.79063 9.20938 2 7 2C4.79063 2 3 3.79063 3 6C3 8.20938 4.79063 10 7 10ZM9.8 11H9.27813C8.58438 11.3188 7.8125 11.5 7 11.5C6.1875 11.5 5.41875 11.3188 4.72188 11H4.2C1.88125 11 0 12.8813 0 15.2V16.5C0 17.3281 0.671875 18 1.5 18H10.0906C10.0156 17.7875 9.98438 17.5625 10.0094 17.3344L10.2219 15.4313L10.2594 15.0844L10.5063 14.8375L12.9219 12.4219C12.1563 11.5563 11.0469 11 9.8 11V11ZM11.2156 15.5406L11.0031 17.4469C10.9688 17.7656 11.2375 18.0344 11.5531 17.9969L13.4563 17.7844L17.7656 13.475L15.525 11.2344L11.2156 15.5406V15.5406ZM19.7813 10.4031L18.5969 9.21875C18.3063 8.92813 17.8313 8.92813 17.5406 9.21875L16.3594 10.4L16.2313 10.5281L18.475 12.7688L19.7813 11.4625C20.0719 11.1688 20.0719 10.6969 19.7813 10.4031V10.4031Z" fill="black"/>
</svg>
