<svg width="66" height="66" viewBox="0 0 66 66" fill="none" xmlns="http://www.w3.org/2000/svg">
<path d="M51.5625 11C52.7362 11 53.8984 11.2312 54.9827 11.6803C56.0671 12.1295 57.0523 12.7878 57.8823 13.6177C58.7122 14.4477 59.3705 15.4329 59.8197 16.5173C60.2688 17.6016 60.5 18.7638 60.5 19.9375V51.5625C60.5 52.7362 60.2688 53.8984 59.8197 54.9827C59.3705 56.0671 58.7122 57.0523 57.8823 57.8823C57.0523 58.7122 56.0671 59.3705 54.9827 59.8197C53.8984 60.2688 52.7362 60.5 51.5625 60.5H19.9375C18.7638 60.5 17.6016 60.2688 16.5173 59.8197C15.4329 59.3705 14.4477 58.7122 13.6177 57.8823C12.7878 57.0523 12.1295 56.0671 11.6803 54.9827C11.2312 53.8984 11 52.7362 11 51.5625V34.3805C12.3035 34.925 13.6867 35.3155 15.125 35.541V51.5625C15.125 52.1345 15.224 52.6845 15.4083 53.196L31.4215 37.5182C32.5192 36.4436 33.9774 35.8158 35.5125 35.7568C37.0475 35.6978 38.5496 36.212 39.7265 37.1993L40.0785 37.5182L56.089 53.1987C56.2732 52.6872 56.375 52.1373 56.375 51.5625V19.9375C56.375 18.6611 55.868 17.4371 54.9654 16.5345C54.0629 15.632 52.8389 15.125 51.5625 15.125H35.541C35.3221 13.7082 34.9324 12.3231 34.3805 11H51.5625ZM34.5373 40.271L34.3063 40.4635L18.337 56.1027C18.8375 56.2787 19.3765 56.375 19.9375 56.375H51.5625C52.1207 56.375 52.6597 56.2787 53.1575 56.1027L37.1937 40.4663C36.8455 40.1249 36.3876 39.918 35.9012 39.8823C35.4149 39.8465 34.9317 39.9843 34.5373 40.271V40.271ZM44.693 20.625C46.3355 20.625 47.9107 21.2775 49.0721 22.4389C50.2335 23.6003 50.886 25.1755 50.886 26.818C50.886 28.4605 50.2335 30.0357 49.0721 31.1971C47.9107 32.3585 46.3355 33.011 44.693 33.011C43.0505 33.011 41.4753 32.3585 40.3139 31.1971C39.1525 30.0357 38.5 28.4605 38.5 26.818C38.5 25.1755 39.1525 23.6003 40.3139 22.4389C41.4753 21.2775 43.0505 20.625 44.693 20.625V20.625ZM17.875 2.75C19.8612 2.75 21.828 3.14122 23.6631 3.90132C25.4981 4.66142 27.1655 5.77552 28.57 7.18001C29.9745 8.5845 31.0886 10.2519 31.8487 12.0869C32.6088 13.922 33 15.8888 33 17.875C33 19.8612 32.6088 21.828 31.8487 23.6631C31.0886 25.4981 29.9745 27.1655 28.57 28.57C27.1655 29.9745 25.4981 31.0886 23.6631 31.8487C21.828 32.6088 19.8612 33 17.875 33C13.8636 33 10.0165 31.4065 7.18001 28.57C4.34352 25.7335 2.75 21.8864 2.75 17.875C2.75 13.8636 4.34352 10.0165 7.18001 7.18001C10.0165 4.34352 13.8636 2.75 17.875 2.75V2.75ZM44.693 24.75C44.4214 24.75 44.1525 24.8035 43.9016 24.9074C43.6507 25.0113 43.4227 25.1637 43.2307 25.3557C43.0387 25.5477 42.8863 25.7757 42.7824 26.0266C42.6785 26.2775 42.625 26.5464 42.625 26.818C42.625 27.0896 42.6785 27.3585 42.7824 27.6094C42.8863 27.8603 43.0387 28.0883 43.2307 28.2803C43.4227 28.4723 43.6507 28.6247 43.9016 28.7286C44.1525 28.8325 44.4214 28.886 44.693 28.886C45.2415 28.886 45.7675 28.6681 46.1553 28.2803C46.5431 27.8925 46.761 27.3665 46.761 26.818C46.761 26.2695 46.5431 25.7435 46.1553 25.3557C45.7675 24.9679 45.2415 24.75 44.693 24.75V24.75ZM17.875 8.25L17.6275 8.26925C17.3528 8.31944 17.0998 8.45211 16.9023 8.64959C16.7049 8.84707 16.5722 9.10001 16.522 9.37475L16.5 9.625V16.5H9.6195L9.372 16.522C9.09726 16.5722 8.84432 16.7049 8.64684 16.9023C8.44936 17.0998 8.31669 17.3528 8.2665 17.6275L8.2445 17.875L8.2665 18.1225C8.31669 18.3972 8.44936 18.6502 8.64684 18.8477C8.84432 19.0451 9.09726 19.1778 9.372 19.228L9.6195 19.25H16.5V26.1333L16.522 26.3808C16.5722 26.6555 16.7049 26.9084 16.9023 27.1059C17.0998 27.3034 17.3528 27.4361 17.6275 27.4862L17.875 27.511L18.1225 27.4862C18.3972 27.4361 18.6502 27.3034 18.8477 27.1059C19.0451 26.9084 19.1778 26.6555 19.228 26.3808L19.25 26.1333V19.25H26.1388L26.3863 19.228C26.661 19.1778 26.9139 19.0451 27.1114 18.8477C27.3089 18.6502 27.4416 18.3972 27.4917 18.1225L27.5138 17.875L27.4917 17.6275C27.4414 17.3524 27.3083 17.0992 27.1103 16.9017C26.9123 16.7041 26.6587 16.5717 26.3835 16.522L26.136 16.5H19.25V9.625L19.228 9.3775C19.1783 9.10226 19.0459 8.84872 18.8483 8.6507C18.6508 8.45269 18.3976 8.31962 18.1225 8.26925L17.875 8.25Z" fill="#FFAB00"/>
</svg>
