<svg width="12" height="15" viewBox="0 0 12 15" fill="none" xmlns="http://www.w3.org/2000/svg">
<path d="M11.2838 3.75C11.5673 3.4665 11.7233 3.09 11.7233 2.6895C11.7233 2.289 11.5673 1.9125 11.2838 1.629L10.0942 0.4395C9.81075 0.156 9.43425 0 9.03375 0C8.63325 0 8.25675 0.156 7.974 0.43875L0 8.388V11.6993H3.30975L11.2838 3.75ZM9.03375 1.5L10.224 2.68875L9.0315 3.87675L7.842 2.688L9.03375 1.5ZM1.5 10.1993V9.0105L6.78 3.747L7.9695 4.9365L2.69025 10.1993H1.5ZM0 13.1992H12V14.6992H0V13.1992Z" fill="#222222"/>
</svg>

