<svg width="220" height="220" viewBox="0 0 220 220" fill="none" xmlns="http://www.w3.org/2000/svg">
<g clip-path="url(#clip0_722_14)">
<path d="M182.187 116.875H200.203C210.062 116.875 218.91 109.718 219.904 99.9075C221.042 88.6497 212.132 79.0625 201.094 79.0625H134.647C129.064 79.0625 124.056 74.8825 123.767 69.3034C123.454 63.3566 128.184 58.4375 134.062 58.4375H152.078C161.937 58.4375 170.785 51.2806 171.779 41.47C172.917 30.2122 164.007 20.625 152.969 20.625H113.437H87.6562H36.0937C25.6506 20.625 17.1875 29.0881 17.1875 39.5312C17.1875 49.9744 25.6506 58.4375 36.0937 58.4375H48.125C51.9234 58.4375 55 61.5141 55 65.3125C55 69.1109 51.9234 72.1875 48.125 72.1875H23.0725C15.0047 72.1875 7.76528 78.045 6.95403 86.0681C6.02247 95.2806 13.3134 103.125 22.3437 103.125H44.1031C49.6856 103.125 54.694 107.305 54.9828 112.884C55.2956 118.831 50.5656 123.75 44.6875 123.75H33.385C25.3172 123.75 18.0778 129.607 17.2665 137.631C16.3384 146.843 23.6259 154.688 32.6562 154.688H47.7572C51.1809 154.688 54.3572 157.028 54.9072 160.408C55.605 164.715 52.3015 168.438 48.125 168.438H33.385C25.3172 168.438 18.0778 174.295 17.2665 182.318C16.335 191.531 23.6259 199.375 32.6562 199.375H108.281C108.577 199.375 108.852 199.303 109.141 199.289C109.429 199.313 109.704 199.375 110 199.375H169.764C175.505 199.375 180.747 195.518 181.923 189.898C183.535 182.181 177.609 175.312 170.156 175.312H151.618C148.194 175.312 145.018 172.972 144.468 169.592C143.77 165.285 147.073 161.562 151.25 161.562H193.49C201.558 161.562 208.797 155.705 209.608 147.678C210.537 138.469 203.249 130.625 194.219 130.625H182.555C179.132 130.625 175.955 128.284 175.405 124.905C174.707 120.598 178.011 116.875 182.187 116.875Z" fill="#FFEFCD"/>
</g>
<path d="M138.03 87.7703V71.2703C138.03 63.4447 135.263 56.7734 129.729 51.2564C124.212 45.7225 117.54 42.9555 109.715 42.9555C101.889 42.9555 95.2179 45.7225 89.7009 51.2564C84.167 56.7734 81.4 63.4447 81.4 71.2703V87.7703" stroke="black" stroke-width="15" stroke-linecap="round" stroke-linejoin="round"/>
<path d="M95.2569 87.3885H138.519C145.835 87.3885 152.073 89.9688 157.234 95.1293C162.411 100.307 165 106.554 165 113.87V164.287C165 167.546 163.854 170.304 161.562 172.562C159.305 174.854 156.546 176 153.287 176H66.713C63.4707 176 60.7037 174.854 58.412 172.562C56.1373 170.287 55 167.529 55 164.287V126.474H95.2569V87.3885V126.474H55V113.87C55 106.537 57.5802 100.29 62.7407 95.1293C67.9012 89.9688 74.1481 87.3885 81.4815 87.3885H95.2569Z" fill="#FFAB00"/>
<path d="M80.4618 145.836C80.1183 145.239 79.341 145.04 78.7444 145.384L75.599 147.209V143.576C75.599 142.889 75.0386 142.329 74.3517 142.329C73.6647 142.329 73.1043 142.889 73.1043 143.576V147.209L69.9589 145.384C69.3623 145.04 68.585 145.239 68.2415 145.836C67.8981 146.432 68.0969 147.209 68.6935 147.553L71.857 149.397L68.6935 151.241C68.0969 151.584 67.8981 152.361 68.2415 152.958C68.585 153.555 69.3623 153.753 69.9589 153.41L73.1043 151.584V155.218C73.1043 155.905 73.6647 156.465 74.3517 156.465C75.0386 156.465 75.599 155.905 75.599 155.218V151.584L78.7444 153.41C79.341 153.753 80.1183 153.555 80.4618 152.958C80.8052 152.361 80.6064 151.584 80.0098 151.241L76.8463 149.397L80.0098 147.553C80.6064 147.191 80.8233 146.432 80.4618 145.836Z" fill="white"/>
<path d="M92.0131 152.94C92.3566 153.537 93.1339 153.735 93.7304 153.392L96.8759 151.566V155.2C96.8759 155.887 97.4363 156.447 98.1232 156.447C98.8101 156.447 99.3705 155.887 99.3705 155.2V151.566L102.516 153.392C103.113 153.735 103.89 153.537 104.233 152.94C104.577 152.343 104.378 151.566 103.781 151.223L100.618 149.379L103.781 147.535C104.378 147.191 104.577 146.414 104.233 145.818C103.89 145.221 103.113 145.022 102.516 145.366L99.3705 147.191V143.558C99.3705 142.871 98.8101 142.311 98.1232 142.311C97.4363 142.311 96.8759 142.871 96.8759 143.558V147.191L93.7304 145.384C93.1339 145.04 92.3566 145.239 92.0131 145.836C91.6696 146.432 91.8685 147.209 92.465 147.553L95.6285 149.397L92.465 151.223C91.8685 151.566 91.6696 152.343 92.0131 152.94Z" fill="white"/>
<path d="M89.7715 162.412V164.618C89.7715 165.142 90.2054 165.576 90.7296 165.576H105.535C106.059 165.576 106.493 165.142 106.493 164.618V162.412C106.493 161.888 106.059 161.454 105.535 161.454H90.7296C90.1873 161.454 89.7715 161.888 89.7715 162.412Z" fill="white"/>
<path d="M113.525 162.412V164.618C113.525 165.142 113.959 165.576 114.483 165.576H129.289C129.813 165.576 130.247 165.142 130.247 164.618V162.412C130.247 161.888 129.813 161.454 129.289 161.454H114.483C113.959 161.454 113.525 161.888 113.525 162.412Z" fill="white"/>
<path d="M115.767 152.94C116.11 153.537 116.887 153.735 117.484 153.392L120.629 151.566V155.2C120.629 155.887 121.19 156.447 121.877 156.447C122.564 156.447 123.124 155.887 123.124 155.2V151.566L126.27 153.392C126.866 153.735 127.643 153.537 127.987 152.94C128.33 152.343 128.132 151.566 127.535 151.223L124.371 149.379L127.535 147.535C128.132 147.191 128.33 146.414 127.987 145.818C127.643 145.221 126.866 145.022 126.27 145.366L123.124 147.191V143.558C123.124 142.871 122.564 142.311 121.877 142.311C121.19 142.311 120.629 142.871 120.629 143.558V147.191L117.484 145.366C116.887 145.022 116.11 145.221 115.767 145.818C115.423 146.414 115.622 147.191 116.219 147.535L119.382 149.379L116.219 151.223C115.622 151.566 115.423 152.343 115.767 152.94Z" fill="white"/>
<path d="M153.042 161.454H138.237C137.712 161.454 137.279 161.888 137.279 162.412V164.618C137.279 165.142 137.712 165.576 138.237 165.576H153.042C153.566 165.576 154 165.142 154 164.618V162.412C154 161.888 153.566 161.454 153.042 161.454Z" fill="white"/>
<path d="M66.9581 165.576H81.7634C82.2876 165.576 82.7214 165.142 82.7214 164.618V162.412C82.7214 161.888 82.2876 161.454 81.7634 161.454H66.9581C66.4339 161.454 66 161.888 66 162.412V164.618C66 165.142 66.4339 165.576 66.9581 165.576Z" fill="white"/>
<path d="M139.538 152.94C139.882 153.537 140.659 153.735 141.256 153.392L144.401 151.566V155.2C144.401 155.887 144.961 156.447 145.648 156.447C146.335 156.447 146.896 155.887 146.896 155.2V151.566L150.041 153.392C150.638 153.735 151.415 153.537 151.758 152.94C152.102 152.343 151.903 151.566 151.306 151.223L148.143 149.379L151.306 147.535C151.903 147.191 152.102 146.414 151.758 145.818C151.415 145.221 150.638 145.022 150.041 145.366L146.896 147.191V143.558C146.896 142.871 146.335 142.311 145.648 142.311C144.961 142.311 144.401 142.871 144.401 143.558V147.191L141.256 145.366C140.659 145.022 139.882 145.221 139.538 145.818C139.195 146.414 139.394 147.191 139.99 147.535L143.154 149.379L139.99 151.223C139.394 151.566 139.177 152.343 139.538 152.94Z" fill="white"/>
<path d="M94 112V111C94 110.172 94.6716 109.5 95.5 109.5H118V106.5C118 105.165 119.619 104.497 120.561 105.439L125.561 110.439C126.146 111.025 126.146 111.975 125.561 112.561L120.561 117.561C119.622 118.499 118 117.841 118 116.5V113.5H95.5C94.6716 113.5 94 112.828 94 112ZM124.5 121.5H102V118.5C102 117.168 100.384 116.495 99.4393 117.439L94.4393 122.439C93.8536 123.025 93.8536 123.975 94.4393 124.561L99.4393 129.561C100.379 130.5 102 129.84 102 128.5V125.5H124.5C125.328 125.5 126 124.828 126 124V123C126 122.172 125.328 121.5 124.5 121.5Z" fill="white"/>
<defs>
<clipPath id="clip0_722_14">
<rect width="220" height="220" fill="white"/>
</clipPath>
</defs>
</svg>
