<svg width="16" height="20" viewBox="0 0 16 20" fill="none" xmlns="http://www.w3.org/2000/svg">
<path d="M11.3113 0.340052V3.90362H14.8748L11.3113 0.340052ZM9.9699 11.0307L7.98797 13.5533C7.86792 13.7135 7.68759 13.8135 7.48745 13.8335H7.40736C7.2272 13.8335 7.06702 13.7734 6.94695 13.6534L5.68566 12.5723C5.38528 12.312 5.34532 11.8514 5.60558 11.5513C5.86582 11.2509 6.32639 11.2109 6.62658 11.4712L7.32723 12.0718L8.84875 10.1298C9.08902 9.80941 9.5494 9.76945 9.86975 10.0097C10.1701 10.25 10.2301 10.7105 9.96982 11.0307L9.9699 11.0307ZM10.7307 5.08489C10.4103 5.08489 10.1501 4.82464 10.1501 4.50429V0H2.14211C0.960931 0 0 0.960888 0 2.14211V17.8579C0 19.0391 0.960889 20 2.14211 20H13.0932C14.2744 20 15.2353 19.0391 15.2353 17.8579L15.2356 5.08522L10.7307 5.08489ZM11.9318 11.7113C11.9318 15.2549 7.9678 16.9766 7.80763 17.0569C7.74752 17.0769 7.66743 17.0968 7.58734 17.0968C7.50725 17.0968 7.44714 17.0769 7.36706 17.0569C7.20688 16.9768 3.24285 15.2551 3.24285 11.7113L3.24318 8.78847C3.24318 8.5482 3.38337 8.34806 3.6035 8.26799L7.40731 6.96675C7.52736 6.92679 7.64758 6.92679 7.74765 6.96675L11.5515 8.26799C11.7717 8.34808 11.9118 8.54822 11.9118 8.78847V11.7113H11.9318Z" fill="black"/>
</svg>
