<svg width="14" height="18" viewBox="0 0 14 18" fill="none" xmlns="http://www.w3.org/2000/svg">
<path fill-rule="evenodd" clip-rule="evenodd" d="M2.68312 18C1.20138 18 7.9155e-05 16.7987 7.9155e-05 15.3169V3.60946C7.9155e-05 2.12772 1.20138 0.926414 2.68312 0.926414H10.4881C11.9698 0.926414 13.1711 2.12772 13.1711 3.60946V15.3169C13.1711 16.7987 11.9698 18 10.4881 18H2.68312ZM9.5126 4.829C9.91664 4.829 10.2442 5.15656 10.2442 5.5608C10.2442 5.96484 9.91665 6.2924 9.5126 6.2924H3.65911C3.25488 6.2924 2.92732 5.96484 2.92732 5.5608C2.92732 5.15657 3.25487 4.829 3.65911 4.829H9.5126ZM10.2442 9.46324C10.2442 9.0592 9.91665 8.73144 9.5126 8.73144H3.65911C3.25488 8.73144 2.92732 9.05919 2.92732 9.46324C2.92732 9.86729 3.25487 10.195 3.65911 10.195H9.5126C9.91664 10.195 10.2442 9.86729 10.2442 9.46324ZM9.5126 12.6339C9.91664 12.6339 10.2442 12.9617 10.2442 13.3657C10.2442 13.7698 9.91665 14.0975 9.5126 14.0975H6.09781C5.69377 14.0975 5.36621 13.7698 5.36621 13.3657C5.36621 12.9617 5.69377 12.6339 6.09781 12.6339H9.5126Z" fill="black"/>
</svg>
