<svg width="131" height="191" viewBox="0 0 131 191" fill="none" xmlns="http://www.w3.org/2000/svg">
<path d="M56.2344 0.132751H60.0089L63.2339 38.3089H59.4594L56.2344 0.132751ZM46.7983 0.132751H50.9072V38.4521H46.7983V0.132751ZM37.3861 0.132751H41.1605L37.9356 38.3089H34.1611L37.3861 0.132751ZM28.2367 0.132751H32.4172C29.3276 9.33258 27.0741 18.2459 25.6567 26.8727C25.2744 28.5281 24.9798 30.1516 24.7728 31.7432C23.3872 42.1209 25.8239 51.1695 32.0828 58.8891C39.0106 64.4759 43.6291 71.2802 45.9383 79.3022C46.3843 80.7507 46.647 82.2229 46.7267 83.7191L46.7744 84.7935C46.9337 92.8314 45.6915 102.787 43.0478 114.661C42.2356 118.29 41.288 122.102 40.205 126.097L36.3111 125.262L39.13 112.656C35.0211 110.316 31.167 107.347 27.5678 103.75C20.7196 96.922 16.133 89.1467 13.8078 80.4244C12.6133 75.9518 12.0161 71.2245 12.0161 66.2426C12.0161 62.5181 12.3506 58.9289 13.0194 55.475C14.2776 49.0128 16.7143 43.0441 20.3294 37.5687C20.8709 27.5731 23.5067 15.0944 28.2367 0.132751ZM90.2283 0.132751H94.7433L90.1806 19.376C94.608 21.7794 98.7487 24.8991 102.603 28.735C112.923 39.0967 118.083 51.5993 118.083 66.2426C118.083 77.1296 115.24 86.8229 109.554 95.3224C105.414 112.703 98.8204 124.354 89.7744 130.275C83.9615 133.761 77.9893 133.761 71.8578 130.275C67.8285 127.219 64.4124 123.511 61.6094 119.15C56.4494 111.112 53.3757 100.853 52.3883 88.3747C52.468 86.6717 52.5874 85.08 52.7467 83.5997C53.3996 78.1562 55.5019 72.7048 59.0533 67.2454L61.2272 64.5475C61.8643 63.7835 63.003 62.6136 64.6433 61.0379C65.9174 59.8441 67.088 58.4912 68.155 56.9791C73.2035 47.7315 74.9554 38.7784 73.4106 30.1197L70.09 13.455C68.9593 8.13883 67.932 3.69808 67.0083 0.132751H70.7111C72.0807 5.11467 73.2513 9.72254 74.2228 13.9564C76.7232 24.8911 77.8857 33.3031 77.7106 39.1922C76.962 48.6945 73.4981 56.7722 67.3189 63.4254C57.7474 73.8189 54.2835 85.2392 56.9272 97.686C59.0135 106.376 62.1589 113.563 66.3633 119.245C68.0833 121.585 69.9944 123.67 72.0967 125.5C78.1167 130.005 84.0093 130.005 89.7744 125.5C95.46 121.028 100.079 113.825 103.63 103.893L104.156 102.151C108.169 87.6983 105.884 76.0632 97.2994 67.2454C92.0757 61.3562 88.5004 56.6608 86.5733 53.1591C82.0185 44.7074 81.923 32.8097 86.2867 17.466L90.2283 0.132751ZM16.8178 35.1574C12.7089 41.349 10.0015 48.1215 8.69554 55.475C8.07443 58.9289 7.76389 62.5102 7.76389 66.2187C7.76389 71.1847 8.31332 75.92 9.41221 80.4244C11.833 90.2927 16.8894 99.0628 24.5817 106.735V106.758C27.3846 109.544 30.3309 111.995 33.4205 114.112L30.8405 118.123C27.4643 115.847 24.2552 113.181 21.2133 110.125H21.1894C12.5576 101.498 6.99943 91.5979 4.51499 80.4244C3.49573 75.904 2.98611 71.1688 2.98611 66.2187C2.98611 62.5261 3.27277 58.9448 3.8461 55.475C5.16795 47.2938 8.08241 39.7652 12.5894 32.8892L16.8178 35.1574ZM70.4006 79.8514C66.3235 91.8048 68.4178 103.941 76.6833 116.261L74.1033 118.505C63.9426 104.419 61.6891 91.001 67.3428 78.2517L70.4006 79.8514ZM108.981 22.3365V22.3604C121.085 34.4729 127.137 49.0924 127.137 66.2187C127.137 79.35 123.593 91.0089 116.506 101.196L112.684 98.2829C119.134 88.9239 122.359 78.2358 122.359 66.2187C122.359 50.4135 116.777 36.9162 105.613 25.7267H105.589C102.515 22.6707 99.2743 20.0286 95.8661 17.8003L98.5894 13.8609C102.221 16.2484 105.684 19.0736 108.981 22.3365Z" fill="#FFC102"/>
<path d="M7.73999 142.022C10.3359 142.022 12.255 142.499 13.4972 143.454C14.7394 144.393 15.3606 145.826 15.3606 147.752C15.3606 148.882 15.05 149.885 14.4289 150.76C13.8078 151.62 12.9318 152.304 11.8011 152.813L17.415 161.122H12.9239L8.36111 153.792H6.21111V161.122H2.17388V142.022H7.73999ZM6.21111 150.498H7.525C8.79907 150.498 9.74666 150.291 10.3678 149.877C10.973 149.447 11.2756 148.771 11.2756 147.847C11.2756 146.956 10.965 146.311 10.3439 145.914C9.72277 145.532 8.75926 145.341 7.45333 145.341H6.21111V150.498ZM129.143 142.022L122.813 153.697V161.122H118.776V153.816L112.445 142.022H116.841L120.782 149.901L124.772 142.022H129.143ZM88.8428 145.341V157.779H90.5867C94.4885 157.779 96.4394 155.686 96.4394 151.5C96.4394 147.394 94.6239 145.341 90.9928 145.341H88.8428ZM100.644 151.405C100.644 154.54 99.752 156.944 97.9683 158.615C96.1687 160.286 93.5807 161.122 90.2044 161.122H84.8056V142.022H90.8017C93.9072 142.022 96.3279 142.85 98.0639 144.505C99.7839 146.144 100.644 148.444 100.644 151.405ZM65.1689 153.195L62.995 146.2L62.6606 144.911L60.1761 153.195H65.1689ZM65.0972 141.95L71.8817 161.122H67.51L66.1244 156.586H59.1728L57.7872 161.122H53.4156L60.1522 141.95H65.0972ZM34.3761 152.861V157.779H41.3278V161.122H30.3389V142.022H41.3278V145.341H34.3761V149.543H40.85V152.861H34.3761Z" fill="white"/>
<path d="M3.32055 176.068C3.32055 176.561 3.42408 176.983 3.63111 177.333C3.83815 177.683 4.18056 178.017 4.65833 178.336C5.13611 178.654 5.99611 179.068 7.23833 179.577C8.63981 180.15 9.66704 180.691 10.32 181.201C10.973 181.71 11.4507 182.283 11.7533 182.92C12.0719 183.556 12.2311 184.304 12.2311 185.164C12.2311 186.867 11.61 188.196 10.3678 189.151C9.14147 190.122 7.45334 190.608 5.30334 190.608C3.13741 190.608 1.36963 190.273 0 189.605V186.644C0.86 187.058 1.7837 187.384 2.77111 187.623L5.49444 187.957C6.73667 187.957 7.65241 187.727 8.24167 187.265C8.83092 186.788 9.12556 186.159 9.12556 185.379C9.12556 184.663 8.85481 184.058 8.31333 183.564C7.77185 183.055 6.65703 182.466 4.96889 181.798C3.23296 181.097 2.00666 180.294 1.28999 179.386C0.573325 178.479 0.214991 177.389 0.214991 176.115C0.214991 174.524 0.78037 173.266 1.91111 172.343C3.04185 171.436 4.56277 170.982 6.47388 170.982C8.30536 170.982 10.1289 171.38 11.9444 172.176L10.9411 174.731C9.23703 174.014 7.72407 173.656 6.40222 173.656C5.38296 173.656 4.61055 173.879 4.08499 174.325C3.57536 174.755 3.32055 175.335 3.32055 176.068ZM115.766 171.245H130.123V173.943H124.509V190.345H121.379V173.943H115.766V171.245ZM105.78 173.871C105.541 174.938 105.191 176.107 104.729 177.381L103.009 182.347H108.575L106.783 177.166L106.258 175.519L105.78 173.871ZM92.7128 173.895H85.0205V179.1H92.235V181.702H85.0205V187.695H92.7128V190.345H81.915V171.245H92.7128V173.895ZM96.9411 190.345L104.084 171.173H107.476L114.619 190.345H111.322L109.411 185.045H102.101L100.238 190.345H96.9411ZM42.4267 173.871C42.1878 174.938 41.8374 176.107 41.3756 177.381L39.6556 182.347H45.2217L43.43 177.166L42.9044 175.519L42.4267 173.871ZM44.1228 171.173L51.2655 190.345H47.9689L46.0578 185.045H38.7478L36.8844 190.345H33.5878L40.7306 171.173H44.1228ZM29.3594 173.895H21.6672V179.1H28.8817V181.702H21.6672V187.695H29.3594V190.345H18.5617V171.245H29.3594V173.895ZM66.7694 173.943H61.1556V190.345H58.0261V173.943H52.4122V171.245H66.7694V173.943Z" fill="#FFC102"/>
</svg>
